<svg width="1349" height="651" xmlns="http://www.w3.org/2000/svg"><g><path d="M-52,-28L-88,52L89,33Z" fill="#7b0623" stroke="#7b0623"/><path d="M-52,-28L89,33L42,-39Z" fill="#710322" stroke="#710322"/><path d="M-52,-28L42,-39L167,-94Z" fill="#59051e" stroke="#59051e"/><path d="M42,-39L89,33L167,-94Z" fill="#770a23" stroke="#770a23"/><path d="M167,-94L89,33L163,48Z" fill="#96112a" stroke="#96112a"/><path d="M167,-94L163,48L290,43Z" fill="#a22534" stroke="#a22534"/><path d="M167,-94L290,43L331,-43Z" fill="#93353a" stroke="#93353a"/><path d="M167,-94L331,-43L557,-68Z" fill="#824e48" stroke="#824e48"/><path d="M167,-94L557,-68L756,-88Z" fill="#7f6e6d" stroke="#7f6e6d"/><path d="M167,-94L756,-88L1496,-87Z" fill="#65656d" stroke="#65656d"/><path d="M331,-43L290,43L430,77Z" fill="#c95553" stroke="#c95553"/><path d="M331,-43L430,77L455,-36Z" fill="#b95b5e" stroke="#b95b5e"/><path d="M331,-43L455,-36L557,-68Z" fill="#966464" stroke="#966464"/><path d="M455,-36L430,77L524,27Z" fill="#cc7073" stroke="#cc7073"/><path d="M455,-36L524,27L557,-68Z" fill="#a97178" stroke="#a97178"/><path d="M557,-68L524,27L629,-27Z" fill="#ac7986" stroke="#ac7986"/><path d="M557,-68L629,-27L756,-88Z" fill="#8b7b87" stroke="#8b7b87"/><path d="M629,-27L524,27L646,94Z" fill="#d58793" stroke="#d58793"/><path d="M629,-27L646,94L759,77Z" fill="#d98690" stroke="#d98690"/><path d="M629,-27L759,77L756,-88Z" fill="#a77384" stroke="#a77384"/><path d="M756,-88L759,77L876,-87Z" fill="#8c6775" stroke="#8c6775"/><path d="M756,-88L876,-87L1496,-87Z" fill="#35353d" stroke="#35353d"/><path d="M876,-87L759,77L923,55Z" fill="#a76373" stroke="#a76373"/><path d="M876,-87L923,55L1020,-80Z" fill="#6e4c5a" stroke="#6e4c5a"/><path d="M876,-87L1020,-80L1496,-87Z" fill="#21212a" stroke="#21212a"/><path d="M1020,-80L923,55L1046,52Z" fill="#854354" stroke="#854354"/><path d="M1020,-80L1046,52L1119,-75Z" fill="#54313f" stroke="#54313f"/><path d="M1020,-80L1119,-75L1496,-87Z" fill="#111019" stroke="#111019"/><path d="M1119,-75L1046,52L1134,35Z" fill="#68293b" stroke="#68293b"/><path d="M1119,-75L1134,35L1243,-38Z" fill="#441a29" stroke="#441a29"/><path d="M1119,-75L1243,-38L1352,-51Z" fill="#1f0b17" stroke="#1f0b17"/><path d="M1119,-75L1352,-51L1496,-87Z" fill="#08000a" stroke="#08000a"/><path d="M1243,-38L1134,35L1291,63Z" fill="#5b1423" stroke="#5b1423"/><path d="M1243,-38L1291,63L1352,-51Z" fill="#370012" stroke="#370012"/><path d="M1352,-51L1291,63L1374,46Z" fill="#4c0615" stroke="#4c0615"/><path d="M1352,-51L1374,46L1496,-87Z" fill="#27000f" stroke="#27000f"/><path d="M1496,-87L1374,46L1483,69Z" fill="#450314" stroke="#450314"/><path d="M1496,-87L1483,69L1492,403Z" fill="#804034" stroke="#804034"/><path d="M1496,-87L1492,403L1532,785Z" fill="#7c7c7c" stroke="#7c7c7c"/><path d="M-88,52L-80,751L-55,400Z" fill="#90737f" stroke="#90737f"/><path d="M-88,52L-55,400L-58,280Z" fill="#9f8084" stroke="#9f8084"/><path d="M-88,52L-58,280L-48,196Z" fill="#9f6259" stroke="#9f6259"/><path d="M-88,52L-48,196L37,178Z" fill="#a94a49" stroke="#a94a49"/><path d="M-88,52L37,178L89,33Z" fill="#ac2634" stroke="#ac2634"/><path d="M89,33L37,178L163,48Z" fill="#c52d37" stroke="#c52d37"/><path d="M163,48L37,178L193,168Z" fill="#da514c" stroke="#da514c"/><path d="M163,48L193,168L282,155Z" fill="#e66353" stroke="#e66353"/><path d="M163,48L282,155L290,43Z" fill="#de5148" stroke="#de5148"/><path d="M290,43L282,155L430,77Z" fill="#ec705f" stroke="#ec705f"/><path d="M430,77L282,155L436,151Z" fill="#fa9578" stroke="#fa9578"/><path d="M430,77L436,151L570,158Z" fill="#feab94" stroke="#feab94"/><path d="M430,77L570,158L524,27Z" fill="#f3958b" stroke="#f3958b"/><path d="M524,27L570,158L646,94Z" fill="#f6a39d" stroke="#f6a39d"/><path d="M646,94L570,158L662,181Z" fill="#fec9ba" stroke="#fec9ba"/><path d="M646,94L662,181L759,77Z" fill="#f5afa4" stroke="#f5afa4"/><path d="M759,77L662,181L792,149Z" fill="#efb5a7" stroke="#efb5a7"/><path d="M759,77L792,149L871,153Z" fill="#e5a497" stroke="#e5a497"/><path d="M759,77L871,153L923,55Z" fill="#d58884" stroke="#d58884"/><path d="M923,55L871,153L1030,197Z" fill="#cc9183" stroke="#cc9183"/><path d="M923,55L1030,197L1046,52Z" fill="#b96d67" stroke="#b96d67"/><path d="M1046,52L1030,197L1171,165Z" fill="#ab7364" stroke="#ab7364"/><path d="M1046,52L1171,165L1134,35Z" fill="#974646" stroke="#974646"/><path d="M1134,35L1171,165L1291,63Z" fill="#883837" stroke="#883837"/><path d="M1291,63L1171,165L1236,175Z" fill="#8b5042" stroke="#8b5042"/><path d="M1291,63L1236,175L1354,192Z" fill="#804b3c" stroke="#804b3c"/><path d="M1291,63L1354,192L1374,46Z" fill="#792d28" stroke="#792d28"/><path d="M1374,46L1354,192L1483,69Z" fill="#7a2f29" stroke="#7a2f29"/><path d="M1483,69L1354,192L1470,204Z" fill="#805342" stroke="#805342"/><path d="M1483,69L1470,204L1473,278Z" fill="#806652" stroke="#806652"/><path d="M1483,69L1473,278L1492,403Z" fill="#808079" stroke="#808079"/><path d="M-48,196L-58,280L51,288Z" fill="#ae8088" stroke="#ae8088"/><path d="M-48,196L51,288L37,178Z" fill="#b7797c" stroke="#b7797c"/><path d="M37,178L51,288L193,168Z" fill="#d07c79" stroke="#d07c79"/><path d="M193,168L51,288L153,334Z" fill="#da8f92" stroke="#da8f92"/><path d="M193,168L153,334L299,326Z" fill="#e6a79f" stroke="#e6a79f"/><path d="M193,168L299,326L282,155Z" fill="#eca992" stroke="#eca992"/><path d="M282,155L299,326L419,294Z" fill="#f6c9b4" stroke="#f6c9b4"/><path d="M282,155L419,294L436,151Z" fill="#fac3a1" stroke="#fac3a1"/><path d="M436,151L419,294L560,299Z" fill="#fee9d6" stroke="#fee9d6"/><path d="M436,151L560,299L570,158Z" fill="#ffe1ca" stroke="#ffe1ca"/><path d="M570,158L560,299L662,181Z" fill="#fff1e2" stroke="#fff1e2"/><path d="M662,181L560,299L649,325Z" fill="#fefefa" stroke="#fefefa"/><path d="M662,181L649,325L795,312Z" fill="#f4f4f1" stroke="#f4f4f1"/><path d="M662,181L795,312L792,149Z" fill="#eee3d5" stroke="#eee3d5"/><path d="M792,149L795,312L871,153Z" fill="#e3d3c4" stroke="#e3d3c4"/><path d="M871,153L795,312L905,296Z" fill="#ddddd6" stroke="#ddddd6"/><path d="M871,153L905,296L1030,197Z" fill="#cdc2b5" stroke="#cdc2b5"/><path d="M1030,197L905,296L1019,299Z" fill="#c2c2bd" stroke="#c2c2bd"/><path d="M1030,197L1019,299L1174,290Z" fill="#adada8" stroke="#adada8"/><path d="M1030,197L1174,290L1171,165Z" fill="#a2988b" stroke="#a2988b"/><path d="M1171,165L1174,290L1236,175Z" fill="#948778" stroke="#948778"/><path d="M1236,175L1174,290L1256,319Z" fill="#8e8e88" stroke="#8e8e88"/><path d="M1236,175L1256,319L1354,192Z" fill="#817d73" stroke="#817d73"/><path d="M1354,192L1256,319L1351,318Z" fill="#80807d" stroke="#80807d"/><path d="M1354,192L1351,318L1473,278Z" fill="#80807b" stroke="#80807b"/><path d="M1354,192L1473,278L1470,204Z" fill="#807a6e" stroke="#807a6e"/><path d="M-58,280L-55,400L30,385Z" fill="#ab808e" stroke="#ab808e"/><path d="M-58,280L30,385L51,288Z" fill="#b68190" stroke="#b68190"/><path d="M51,288L30,385L153,334Z" fill="#cb8793" stroke="#cb8793"/><path d="M153,334L30,385L151,443Z" fill="#cc828c" stroke="#cc828c"/><path d="M153,334L151,443L302,399Z" fill="#da9996" stroke="#da9996"/><path d="M153,334L302,399L299,326Z" fill="#ebb1a8" stroke="#ebb1a8"/><path d="M299,326L302,399L419,294Z" fill="#f6cabb" stroke="#f6cabb"/><path d="M419,294L302,399L395,442Z" fill="#f3cdbb" stroke="#f3cdbb"/><path d="M419,294L395,442L542,417Z" fill="#f5ddd0" stroke="#f5ddd0"/><path d="M419,294L542,417L560,299Z" fill="#fef0e7" stroke="#fef0e7"/><path d="M560,299L542,417L649,325Z" fill="#fffbf9" stroke="#fffbf9"/><path d="M649,325L542,417L681,427Z" fill="#f4f4f4" stroke="#f4f4f4"/><path d="M649,325L681,427L795,312Z" fill="#f3f3f3" stroke="#f3f3f3"/><path d="M795,312L681,427L784,432Z" fill="#e3e3e3" stroke="#e3e3e3"/><path d="M795,312L784,432L914,446Z" fill="#d6d6d6" stroke="#d6d6d6"/><path d="M795,312L914,446L905,296Z" fill="#dadada" stroke="#dadada"/><path d="M905,296L914,446L1019,299Z" fill="#cbcbcb" stroke="#cbcbcb"/><path d="M1019,299L914,446L1050,417Z" fill="#b7b7b7" stroke="#b7b7b7"/><path d="M1019,299L1050,417L1154,389Z" fill="#aaaaaa" stroke="#aaaaaa"/><path d="M1019,299L1154,389L1174,290Z" fill="#a4a4a4" stroke="#a4a4a4"/><path d="M1174,290L1154,389L1256,319Z" fill="#939393" stroke="#939393"/><path d="M1256,319L1154,389L1238,403Z" fill="#8b8b8b" stroke="#8b8b8b"/><path d="M1256,319L1238,403L1351,318Z" fill="#818181" stroke="#818181"/><path d="M1351,318L1238,403L1369,453Z" fill="#767676" stroke="#767676"/><path d="M1351,318L1369,453L1492,403Z" fill="#767676" stroke="#767676"/><path d="M1351,318L1492,403L1473,278Z" fill="#808080" stroke="#808080"/><path d="M-55,400L-80,751L-47,672Z" fill="#2b0a17" stroke="#2b0a17"/><path d="M-55,400L-47,672L-27,534Z" fill="#532d3a" stroke="#532d3a"/><path d="M-55,400L-27,534L30,385Z" fill="#906271" stroke="#906271"/><path d="M30,385L-27,534L91,562Z" fill="#824856" stroke="#824856"/><path d="M30,385L91,562L151,443Z" fill="#a55f6a" stroke="#a55f6a"/><path d="M151,443L91,562L151,564Z" fill="#8e424a" stroke="#8e424a"/><path d="M151,443L151,564L329,546Z" fill="#9d5c58" stroke="#9d5c58"/><path d="M151,443L329,546L302,399Z" fill="#c38b80" stroke="#c38b80"/><path d="M302,399L329,546L395,442Z" fill="#cda192" stroke="#cda192"/><path d="M395,442L329,546L431,534Z" fill="#b89483" stroke="#b89483"/><path d="M395,442L431,534L530,510Z" fill="#c1a99c" stroke="#c1a99c"/><path d="M395,442L530,510L542,417Z" fill="#d8c7bd" stroke="#d8c7bd"/><path d="M542,417L530,510L648,511Z" fill="#ccc7c4" stroke="#ccc7c4"/><path d="M542,417L648,511L681,427Z" fill="#dadada" stroke="#dadada"/><path d="M681,427L648,511L776,561Z" fill="#b6b6b6" stroke="#b6b6b6"/><path d="M681,427L776,561L784,432Z" fill="#bfbfbf" stroke="#bfbfbf"/><path d="M784,432L776,561L877,543Z" fill="#9e9e9e" stroke="#9e9e9e"/><path d="M784,432L877,543L914,446Z" fill="#aeaeae" stroke="#aeaeae"/><path d="M914,446L877,543L1028,526Z" fill="#8a8a8a" stroke="#8a8a8a"/><path d="M914,446L1028,526L1050,417Z" fill="#969696" stroke="#969696"/><path d="M1050,417L1028,526L1173,506Z" fill="#767676" stroke="#767676"/><path d="M1050,417L1173,506L1154,389Z" fill="#858585" stroke="#858585"/><path d="M1154,389L1173,506L1238,403Z" fill="#7b7b7b" stroke="#7b7b7b"/><path d="M1238,403L1173,506L1288,515Z" fill="#5c5c5c" stroke="#5c5c5c"/><path d="M1238,403L1288,515L1369,453Z" fill="#595959" stroke="#595959"/><path d="M1369,453L1288,515L1367,555Z" fill="#3d3d3d" stroke="#3d3d3d"/><path d="M1369,453L1367,555L1497,565Z" fill="#333333" stroke="#333333"/><path d="M1369,453L1497,565L1492,403Z" fill="#515151" stroke="#515151"/><path d="M1492,403L1497,565L1532,785Z" fill="#151515" stroke="#151515"/><path d="M-27,534L-47,672L43,675Z" fill="#310110" stroke="#310110"/><path d="M-27,534L43,675L91,562Z" fill="#511623" stroke="#511623"/><path d="M91,562L43,675L157,632Z" fill="#540c17" stroke="#540c17"/><path d="M91,562L157,632L151,564Z" fill="#6f242c" stroke="#6f242c"/><path d="M151,564L157,632L329,546Z" fill="#7d3e39" stroke="#7d3e39"/><path d="M329,546L157,632L333,680Z" fill="#733c31" stroke="#733c31"/><path d="M329,546L333,680L431,534Z" fill="#8e6654" stroke="#8e6654"/><path d="M431,534L333,680L444,692Z" fill="#7c5a4b" stroke="#7c5a4b"/><path d="M431,534L444,692L512,677Z" fill="#7e685c" stroke="#7e685c"/><path d="M431,534L512,677L530,510Z" fill="#99887e" stroke="#99887e"/><path d="M530,510L512,677L648,511Z" fill="#9d9692" stroke="#9d9692"/><path d="M648,511L512,677L678,682Z" fill="#828282" stroke="#828282"/><path d="M648,511L678,682L776,561Z" fill="#8a8a8a" stroke="#8a8a8a"/><path d="M776,561L678,682L784,673Z" fill="#6f6f6f" stroke="#6f6f6f"/><path d="M776,561L784,673L903,635Z" fill="#666666" stroke="#666666"/><path d="M776,561L903,635L877,543Z" fill="#767676" stroke="#767676"/><path d="M877,543L903,635L1028,526Z" fill="#6a6a6a" stroke="#6a6a6a"/><path d="M1028,526L903,635L1019,643Z" fill="#505050" stroke="#505050"/><path d="M1028,526L1019,643L1174,648Z" fill="#393939" stroke="#393939"/><path d="M1028,526L1174,648L1173,506Z" fill="#434343" stroke="#434343"/><path d="M1173,506L1174,648L1288,515Z" fill="#333333" stroke="#333333"/><path d="M1288,515L1174,648L1254,667Z" fill="#131313" stroke="#131313"/><path d="M1288,515L1254,667L1367,555Z" fill="#181818" stroke="#181818"/><path d="M1367,555L1254,667L1369,694Z" fill="#000000" stroke="#000000"/><path d="M1367,555L1369,694L1478,676Z" fill="#000000" stroke="#000000"/><path d="M1367,555L1478,676L1497,565Z" fill="#0e0e0e" stroke="#0e0e0e"/><path d="M1497,565L1478,676L1532,785Z" fill="#000000" stroke="#000000"/><path d="M-47,672L-80,751L35,798Z" fill="#2a000e" stroke="#2a000e"/><path d="M-47,672L35,798L43,675Z" fill="#370110" stroke="#370110"/><path d="M43,675L35,798L173,764Z" fill="#4d0814" stroke="#4d0814"/><path d="M43,675L173,764L157,632Z" fill="#590d16" stroke="#590d16"/><path d="M157,632L173,764L333,680Z" fill="#682923" stroke="#682923"/><path d="M333,680L173,764L324,768Z" fill="#6f392e" stroke="#6f392e"/><path d="M333,680L324,768L444,692Z" fill="#7a5241" stroke="#7a5241"/><path d="M444,692L324,768L455,795Z" fill="#7c5c4c" stroke="#7c5c4c"/><path d="M444,692L455,795L554,750Z" fill="#7f6c62" stroke="#7f6c62"/><path d="M444,692L554,750L512,677Z" fill="#7f7067" stroke="#7f7067"/><path d="M512,677L554,750L678,682Z" fill="#7f7b78" stroke="#7f7b78"/><path d="M678,682L554,750L656,793Z" fill="#7e7e7e" stroke="#7e7e7e"/><path d="M678,682L656,793L772,811Z" fill="#757575" stroke="#757575"/><path d="M678,682L772,811L784,673Z" fill="#6f6f6f" stroke="#6f6f6f"/><path d="M784,673L772,811L885,752Z" fill="#646464" stroke="#646464"/><path d="M784,673L885,752L903,635Z" fill="#5d5d5d" stroke="#5d5d5d"/><path d="M903,635L885,752L1019,643Z" fill="#4d4d4d" stroke="#4d4d4d"/><path d="M1019,643L885,752L1045,750Z" fill="#434343" stroke="#434343"/><path d="M1019,643L1045,750L1174,648Z" fill="#2d2d2d" stroke="#2d2d2d"/><path d="M1174,648L1045,750L1145,811Z" fill="#232323" stroke="#232323"/><path d="M1174,648L1145,811L1254,667Z" fill="#151515" stroke="#151515"/><path d="M1254,667L1145,811L1290,771Z" fill="#0d0d0d" stroke="#0d0d0d"/><path d="M1254,667L1290,771L1369,694Z" fill="#000000" stroke="#000000"/><path d="M1369,694L1290,771L1390,777Z" fill="#000000" stroke="#000000"/><path d="M1369,694L1390,777L1478,676Z" fill="#000000" stroke="#000000"/><path d="M1478,676L1390,777L1532,785Z" fill="#000000" stroke="#000000"/><path d="M35,798L772,811L455,795Z" fill="#7c5e50" stroke="#7c5e50"/><path d="M35,798L455,795L324,768Z" fill="#6e382c" stroke="#6e382c"/><path d="M35,798L324,768L173,764Z" fill="#611c1d" stroke="#611c1d"/><path d="M455,795L772,811L656,793Z" fill="#7e7e7e" stroke="#7e7e7e"/><path d="M455,795L656,793L554,750Z" fill="#7f7772" stroke="#7f7772"/><path d="M772,811L1145,811L885,752Z" fill="#4e4e4e" stroke="#4e4e4e"/><path d="M885,752L1145,811L1045,750Z" fill="#393939" stroke="#393939"/><path d="M1145,811L1532,785L1390,777Z" fill="#000000" stroke="#000000"/><path d="M1145,811L1390,777L1290,771Z" fill="#030303" stroke="#030303"/></g></svg>