<svg width="1349" height="651" xmlns="http://www.w3.org/2000/svg"><g><path d="M-33,-63L-96,36L102,91Z" fill="#eb3e30" stroke="#eb3e30"/><path d="M-33,-63L102,91L144,-119Z" fill="#f1342a" stroke="#f1342a"/><path d="M144,-119L102,91L185,-80Z" fill="#f74031" stroke="#f74031"/><path d="M144,-119L185,-80L357,-48Z" fill="#fe472d" stroke="#fe472d"/><path d="M144,-119L357,-48L560,-71Z" fill="#fe5f3c" stroke="#fe5f3c"/><path d="M144,-119L560,-71L956,-92Z" fill="#f67446" stroke="#f67446"/><path d="M144,-119L956,-92L1083,-109Z" fill="#e47441" stroke="#e47441"/><path d="M185,-80L102,91L213,129Z" fill="#f96f4a" stroke="#f96f4a"/><path d="M185,-80L213,129L357,-48Z" fill="#fe6847" stroke="#fe6847"/><path d="M357,-48L213,129L330,190Z" fill="#fe9f65" stroke="#fe9f65"/><path d="M357,-48L330,190L428,142Z" fill="#feaf6e" stroke="#feaf6e"/><path d="M357,-48L428,142L560,-71Z" fill="#ff915f" stroke="#ff915f"/><path d="M560,-71L428,142L586,128Z" fill="#f9b16f" stroke="#f9b16f"/><path d="M560,-71L586,128L801,23Z" fill="#eea164" stroke="#eea164"/><path d="M560,-71L801,23L828,-58Z" fill="#e37e4d" stroke="#e37e4d"/><path d="M560,-71L828,-58L956,-92Z" fill="#db703e" stroke="#db703e"/><path d="M828,-58L801,23L905,131Z" fill="#d19955" stroke="#d19955"/><path d="M828,-58L905,131L956,-92Z" fill="#c98146" stroke="#c98146"/><path d="M956,-92L905,131L1090,50Z" fill="#b2894c" stroke="#b2894c"/><path d="M956,-92L1090,50L1083,-109Z" fill="#a25934" stroke="#a25934"/><path d="M1083,-109L1090,50L1269,-97Z" fill="#874b30" stroke="#874b30"/><path d="M1269,-97L1090,50L1250,102Z" fill="#806941" stroke="#806941"/><path d="M1269,-97L1250,102L1409,-57Z" fill="#804934" stroke="#804934"/><path d="M1409,-57L1250,102L1374,146Z" fill="#806e49" stroke="#806e49"/><path d="M1409,-57L1374,146L1439,203Z" fill="#807850" stroke="#807850"/><path d="M1409,-57L1439,203L1481,482Z" fill="#80a26e" stroke="#80a26e"/><path d="M-96,36L-127,397L-51,181Z" fill="#e48059" stroke="#e48059"/><path d="M-96,36L-51,181L102,91Z" fill="#ea6646" stroke="#ea6646"/><path d="M102,91L-51,181L105,215Z" fill="#f08d5e" stroke="#f08d5e"/><path d="M102,91L105,215L213,129Z" fill="#f79862" stroke="#f79862"/><path d="M213,129L105,215L277,356Z" fill="#fcc17d" stroke="#fcc17d"/><path d="M213,129L277,356L330,190Z" fill="#fecf85" stroke="#fecf85"/><path d="M428,142L330,190L459,261Z" fill="#ffe08e" stroke="#ffe08e"/><path d="M428,142L459,261L586,128Z" fill="#fbe18e" stroke="#fbe18e"/><path d="M586,128L459,261L575,328Z" fill="#f7f399" stroke="#f7f399"/><path d="M586,128L575,328L812,250Z" fill="#eef799" stroke="#eef799"/><path d="M586,128L812,250L801,23Z" fill="#e3d27c" stroke="#e3d27c"/><path d="M801,23L812,250L905,131Z" fill="#d2cb72" stroke="#d2cb72"/><path d="M905,131L812,250L943,295Z" fill="#cae884" stroke="#cae884"/><path d="M905,131L943,295L1075,280Z" fill="#b4de81" stroke="#b4de81"/><path d="M905,131L1075,280L1090,50Z" fill="#a7bf6d" stroke="#a7bf6d"/><path d="M1090,50L1075,280L1250,102Z" fill="#89ad67" stroke="#89ad67"/><path d="M1250,102L1075,280L1308,211Z" fill="#80b973" stroke="#80b973"/><path d="M1250,102L1308,211L1374,146Z" fill="#809b63" stroke="#809b63"/><path d="M1374,146L1308,211L1439,203Z" fill="#80a16a" stroke="#80a16a"/><path d="M-51,181L-127,397L45,426Z" fill="#e48e60" stroke="#e48e60"/><path d="M-51,181L45,426L105,215Z" fill="#ee9f6a" stroke="#ee9f6a"/><path d="M105,215L45,426L277,356Z" fill="#f4b575" stroke="#f4b575"/><path d="M330,190L277,356L459,261Z" fill="#fede8e" stroke="#fede8e"/><path d="M459,261L277,356L417,459Z" fill="#f2e389" stroke="#f2e389"/><path d="M459,261L417,459L575,328Z" fill="#f3f093" stroke="#f3f093"/><path d="M575,328L417,459L608,381Z" fill="#e0f089" stroke="#e0f089"/><path d="M575,328L608,381L765,358Z" fill="#e3f592" stroke="#e3f592"/><path d="M575,328L765,358L812,250Z" fill="#e5f495" stroke="#e5f495"/><path d="M812,250L765,358L881,374Z" fill="#d5ed8a" stroke="#d5ed8a"/><path d="M812,250L881,374L943,295Z" fill="#cce985" stroke="#cce985"/><path d="M943,295L881,374L1116,469Z" fill="#9edb73" stroke="#9edb73"/><path d="M943,295L1116,469L1075,280Z" fill="#99d479" stroke="#99d479"/><path d="M1075,280L1116,469L1298,444Z" fill="#67c568" stroke="#67c568"/><path d="M1075,280L1298,444L1308,211Z" fill="#80bf78" stroke="#80bf78"/><path d="M1308,211L1298,444L1439,203Z" fill="#80b073" stroke="#80b073"/><path d="M1439,203L1298,444L1481,482Z" fill="#6da765" stroke="#6da765"/><path d="M-127,397L-105,658L45,426Z" fill="#977541" stroke="#977541"/><path d="M45,426L-105,658L107,522Z" fill="#837845" stroke="#837845"/><path d="M45,426L107,522L277,356Z" fill="#ceb15d" stroke="#ceb15d"/><path d="M277,356L107,522L245,584Z" fill="#b2af60" stroke="#b2af60"/><path d="M277,356L245,584L417,459Z" fill="#c1c96d" stroke="#c1c96d"/><path d="M417,459L245,584L437,663Z" fill="#80b369" stroke="#80b369"/><path d="M417,459L437,663L624,608Z" fill="#7cc272" stroke="#7cc272"/><path d="M417,459L624,608L608,381Z" fill="#afe07a" stroke="#afe07a"/><path d="M608,381L624,608L726,621Z" fill="#84d476" stroke="#84d476"/><path d="M608,381L726,621L765,358Z" fill="#b3eb7b" stroke="#b3eb7b"/><path d="M765,358L726,621L908,545Z" fill="#80d46c" stroke="#80d46c"/><path d="M765,358L908,545L881,374Z" fill="#aae770" stroke="#aae770"/><path d="M881,374L908,545L1116,469Z" fill="#7bd264" stroke="#7bd264"/><path d="M1116,469L908,545L1043,572Z" fill="#43b75c" stroke="#43b75c"/><path d="M1116,469L1043,572L1318,529Z" fill="#22a858" stroke="#22a858"/><path d="M1116,469L1318,529L1298,444Z" fill="#39ab59" stroke="#39ab59"/><path d="M1298,444L1318,529L1481,482Z" fill="#369b54" stroke="#369b54"/><path d="M1481,482L1318,529L1407,579Z" fill="#1a894f" stroke="#1a894f"/><path d="M1481,482L1407,579L1492,720Z" fill="#006e47" stroke="#006e47"/><path d="M-105,658L-41,775L16,700Z" fill="#68372f" stroke="#68372f"/><path d="M-105,658L16,700L107,522Z" fill="#6c5a3c" stroke="#6c5a3c"/><path d="M107,522L16,700L245,584Z" fill="#767a4c" stroke="#767a4c"/><path d="M245,584L16,700L259,734Z" fill="#7a6f4b" stroke="#7a6f4b"/><path d="M245,584L259,734L437,663Z" fill="#7f8e5c" stroke="#7f8e5c"/><path d="M437,663L259,734L403,764Z" fill="#7f855c" stroke="#7f855c"/><path d="M437,663L403,764L619,708Z" fill="#7c9866" stroke="#7c9866"/><path d="M437,663L619,708L624,608Z" fill="#76ab6b" stroke="#76ab6b"/><path d="M624,608L619,708L726,621Z" fill="#6eb26c" stroke="#6eb26c"/><path d="M726,621L619,708L707,776Z" fill="#6ba166" stroke="#6ba166"/><path d="M726,621L707,776L862,730Z" fill="#5e995e" stroke="#5e995e"/><path d="M726,621L862,730L908,545Z" fill="#54ac5e" stroke="#54ac5e"/><path d="M908,545L862,730L1043,572Z" fill="#3fa758" stroke="#3fa758"/><path d="M1043,572L862,730L1038,826Z" fill="#33864e" stroke="#33864e"/><path d="M1043,572L1038,826L1262,779Z" fill="#107048" stroke="#107048"/><path d="M1043,572L1262,779L1318,529Z" fill="#00834d" stroke="#00834d"/><path d="M1318,529L1262,779L1407,579Z" fill="#007349" stroke="#007349"/><path d="M1407,579L1262,779L1492,720Z" fill="#005941" stroke="#005941"/><path d="M-41,775L1038,826L403,764Z" fill="#7e8060" stroke="#7e8060"/><path d="M-41,775L403,764L259,734Z" fill="#7d5c47" stroke="#7d5c47"/><path d="M-41,775L259,734L16,700Z" fill="#72483b" stroke="#72483b"/><path d="M403,764L1038,826L707,776Z" fill="#66845c" stroke="#66845c"/><path d="M403,764L707,776L619,708Z" fill="#759063" stroke="#759063"/><path d="M707,776L1038,826L862,730Z" fill="#4e7d4e" stroke="#4e7d4e"/></g><filter id="noise"><feTurbulence type="fractalNoise" in="fillPaint" fill="#F00" baseFrequency="0.7" numOctaves="3" stitchTiles="stitch"/><feComponentTransfer><feFuncR type="linear" slope="2" intercept="-.5"/><feFuncG type="linear" slope="2" intercept="-.5"/><feFuncB type="linear" slope="2" intercept="-.5"/></feComponentTransfer><feColorMatrix type="matrix" values="0.3333 0.3333 0.3333 0 0 
 0.3333 0.3333 0.3333 0 0 
 0.3333 0.3333 0.3333 0 0 
 0 0 0 1 0"/></filter><rect opacity="0.4000000000000001" width="100%" height="100%" filter="url(#noise)"/></svg>