<?xml version="1.0" encoding="utf-8"?>
<!-- Generator: Adobe Illustrator 15.0.0, SVG Export Plug-In . SVG Version: 6.00 Build 0)  -->
<!DOCTYPE svg PUBLIC "-//W3C//DTD SVG 1.1//EN" "http://www.w3.org/Graphics/SVG/1.1/DTD/svg11.dtd">
<svg version="1.1" id="Layer_1" xmlns="http://www.w3.org/2000/svg" xmlns:xlink="http://www.w3.org/1999/xlink" x="0px" y="0px"
	 width="100px" height="100px" viewBox="0 0 100 100" enable-background="new 0 0 100 100" xml:space="preserve">
<circle fill="#4A494A" cx="50.226" cy="49.833" r="46.63"/>
<path fill="#FFFFFF" d="M43.028,55.736l4.081-1.935c0,0-0.683-8.03,2.162-18.839C52.116,24.152,59.63,20.224,59.63,20.224
	s5.044-3.336,8.601-0.349c3.555,2.987,3.84,13.086-0.569,19.771c-4.409,6.686-15.33,13.346-15.33,13.346s-1.158,5.685,3.157,10.422
	c4.748,5.212,9.896,1.27,9.896,1.27s4.266-3.131,6.543-1.425c2.276,1.707,1.787,4.252,1.133,5.491
	c-1.104,2.102-4.711,4.204-9.512,4.896c-4.021,0.58-7.314-0.196-11.865-4.748c-4.553-4.551-4.575-12.666-4.575-12.666l-4.1,2.225
	c0,0,0.479,18.322-7.415,18.744c-4.418,0.236-10.667-1.721-10.322-7.258c0.533-8.531,13.271-12.396,13.271-12.396
	c-0.129-6.95-2.798-24.719-4.279-26.94c-2.403-3.604-4.956,2.854-5.556-4.205c0-5.405,5.835-6.04,9.16-3.453
	C41.922,26.104,43.028,55.736,43.028,55.736z M63.779,22.068c-4.127,1.565-7.354,6.706-9.135,13.978
	c-2.525,10.315-2.33,14.841-2.33,14.841s11.483-6.28,14.646-15.263C70.832,24.626,67.902,20.503,63.779,22.068z M32.112,66.489
	c-0.57,1.138-3.377,8.901,2.152,9.167c4.381,0.211,4.421-15.885,4.421-15.885C34.277,61.051,32.682,65.352,32.112,66.489z"/>
<circle fill="#56BAD1" cx="49.946" cy="49.946" r="49.946"/>
<path fill="#FFFFFF" d="M45.65,55.017l4.32-1.508c0,0,0.149-7.735,4.181-18.352c4.031-10.618,12.045-13.783,12.045-13.783
	s5.451-2.83,8.725,0.568c3.272,3.398,2.691,14.338-2.479,20.621c-5.17,6.283-17.384,12.15-17.384,12.15s-1.523,4.605,2.33,9.853
	c4.24,5.775,11.285,3.37,11.285,3.37s5.402-1.83,7.458,0.202c2.648,2.622,1.416,4.703,0.122,5.892
	c-1.777,1.635-3.726,2.489-8.65,2.676c-4.127,0.156-10.535-1.917-14.646-7.004c-4.112-5.086-3.265-13.286-3.265-13.286l-4.382,1.809
	c0,0-1.02,14.521-9.498,18.144c-4.133,1.767-10.592-2.88-9.651-8.437c1.452-8.563,14.773-11.581,14.773-11.581
	c0.614-7.034-0.219-24.796-1.478-27.198c-2.042-3.898-4.225-0.156-5.164-4.843c-0.695-5.568,7.479-6.163,9.625-2.509
	C46.558,26.3,45.65,55.017,45.65,55.017z M70.188,23.682c-4.335,1.139-8.145,5.987-10.722,13.144
	c-3.656,10.151-3.945,14.746-3.945,14.746s11.765-5.364,15.921-14.099C76.529,26.774,74.523,22.542,70.188,23.682z M33.441,65.171
	c-1.414,2.416-2.717,11.214,2.326,8.723c5.238-2.591,5.036-14.806,5.036-14.806C36.36,60.569,34.889,62.696,33.441,65.171z"/>
</svg>
